# xmcd CD database file
#
# Track frame offsets:
#	150
#	18061
#	39986
#	50589
#	70679
#	90978
#	113595
#	141177
#	160035
#	177045
#	191260
#	207381
#	233307
#	244755
#
# Disc length: 3581 seconds
#
# Revision: 0
# Processed by: cddbd v1.4PL0 Copyright (c) Steve Scherf et al.
# Submitted via: CDex 1.51
#
DISCID=9f0dfb0e
DTITLE=Conny Devanney - Samoset Jazz
DYEAR=1990
DGENRE=Jazz
TTITLE0=Almost like
TTITLE1=That old devil
TTITLE2=Sadie
TTITLE3=Good Mornin'
TTITLE4=Orange Colored Sky
TTITLE5=Undecided
TTITLE6=I Thought 'bout you
TTITLE7=You make me feel 
TTITLE8=Red Riding Hood
TTITLE9=Zippidy
TTITLE10=Guess who I saw
TTITLE11=Easy to love
TTITLE12=Miss Otis regrets
TTITLE13=Dream
EXTD=YEAR: 1990
EXTT0=
EXTT1=
EXTT2=
EXTT3=
EXTT4=
EXTT5=
EXTT6=
EXTT7=
EXTT8=
EXTT9=
EXTT10=
EXTT11=
EXTT12=
EXTT13=
PLAYORDER=
